<svg width="410" height="110" viewBox="0 0 410 110" fill="none" xmlns="http://www.w3.org/2000/svg">
<path d="M55 0L75 12L22 42.5C15.5 46.5 20 55.5 27.5 52L85 17L110 32V61.5L85 76L66 64L90 49.5C95 46 91.5 38.5 85 41L26.5 75L1.5 62V32L55 0Z" fill="#315F7D"/>
<path d="M0 95.5V73L25 87L56 70L85 87L110 73V95.5L84 109.5L55 92.5L25 109.5L0 95.5Z" fill="#091634"/>
<path d="M142.104 61.816C140.312 61.816 138.584 61.576 136.92 61.096C135.256 60.648 133.896 59.992 132.84 59.128C131.784 58.232 131.256 57.208 131.256 56.056V50.44H132.6C133.08 53.704 134.088 56.056 135.624 57.496C137.16 58.936 139.304 59.656 142.056 59.656C143.912 59.656 145.384 59.256 146.472 58.456C147.56 57.656 148.104 56.504 148.104 55C148.104 53.72 147.704 52.632 146.904 51.736C146.104 50.84 144.856 49.864 143.16 48.808L137.256 45.256C135.112 44.008 133.576 42.712 132.648 41.368C131.752 40.024 131.304 38.456 131.304 36.664C131.304 34.136 132.264 32.136 134.184 30.664C136.136 29.192 138.76 28.456 142.056 28.456C143.848 28.456 145.576 28.696 147.24 29.176C148.904 29.624 150.264 30.296 151.32 31.192C152.376 32.056 152.904 33.064 152.904 34.216V39.832H151.56C151.016 36.568 150.008 34.216 148.536 32.776C147.064 31.336 145.08 30.616 142.584 30.616C140.856 30.616 139.48 31.032 138.456 31.864C137.464 32.696 136.968 33.832 136.968 35.272C136.968 36.52 137.352 37.56 138.12 38.392C138.92 39.192 140.2 40.104 141.96 41.128L147.864 44.632C150.104 45.944 151.704 47.224 152.664 48.472C153.656 49.688 154.152 51.16 154.152 52.888C154.152 55.672 153.096 57.864 150.984 59.464C148.904 61.032 145.944 61.816 142.104 61.816ZM158.786 35.56C158.786 33.928 158.562 32.728 158.114 31.96C157.666 31.16 156.77 30.76 155.426 30.76H154.946V29.32H160.706C161.858 29.32 162.738 29.512 163.346 29.896C163.954 30.28 164.386 30.92 164.642 31.816C164.898 32.68 165.026 33.928 165.026 35.56V39.784C165.314 39.56 165.81 39.256 166.514 38.872C167.794 38.264 169.058 37.96 170.306 37.96C172.898 37.96 175.058 38.632 176.786 39.976C178.546 41.288 179.426 43.544 179.426 46.744V61H173.186V46.984C173.186 44.68 172.77 43 171.938 41.944C171.138 40.888 170.114 40.36 168.866 40.36C168.002 40.36 167.09 40.648 166.13 41.224C165.746 41.448 165.378 41.72 165.026 42.04V61H158.786V35.56ZM194.256 61.48C191.216 61.48 188.976 60.776 187.536 59.368C186.096 57.96 185.376 55.72 185.376 52.648V44.68C185.376 43.048 185.152 41.848 184.704 41.08C184.256 40.28 183.36 39.88 182.016 39.88H181.536V38.44H187.296C188.448 38.44 189.328 38.632 189.936 39.016C190.544 39.4 190.976 40.04 191.232 40.936C191.488 41.8 191.616 43.048 191.616 44.68V52.696C191.616 55.096 191.952 56.808 192.624 57.832C193.296 58.824 194.32 59.32 195.696 59.32C196.88 59.32 197.952 58.808 198.912 57.784C199.264 57.432 199.632 56.904 200.016 56.2V38.44H206.256V61H202.176L200.496 58.84H200.256C199.808 59.32 199.28 59.768 198.672 60.184C197.456 61.048 195.984 61.48 194.256 61.48ZM222.404 61.48C219.94 61.48 217.844 60.952 216.116 59.896C214.388 58.84 213.076 57.432 212.18 55.672C211.316 53.88 210.884 51.896 210.884 49.72C210.884 47.544 211.316 45.576 212.18 43.816C213.076 42.024 214.388 40.6 216.116 39.544C217.844 38.488 219.94 37.96 222.404 37.96C226.244 37.96 228.724 38.52 229.844 39.64C230.388 40.184 230.724 40.904 230.852 41.8C230.98 42.696 231.044 44.216 231.044 46.36H229.604C229.476 44.344 228.852 42.808 227.732 41.752C226.612 40.664 225.076 40.12 223.124 40.12C221.364 40.12 219.956 40.936 218.9 42.568C217.876 44.168 217.364 46.552 217.364 49.72C217.364 56.12 219.364 59.32 223.364 59.32C224.9 59.32 226.18 58.984 227.204 58.312C228.26 57.608 229.268 56.616 230.228 55.336L231.716 56.44C230.788 57.88 229.62 59.08 228.212 60.04C226.804 61 224.868 61.48 222.404 61.48ZM235.849 35.56C235.849 33.928 235.625 32.728 235.177 31.96C234.729 31.16 233.833 30.76 232.489 30.76H232.009V29.32H237.769C238.921 29.32 239.801 29.512 240.409 29.896C241.017 30.28 241.449 30.92 241.705 31.816C241.961 32.68 242.089 33.928 242.089 35.56V39.784C242.377 39.56 242.873 39.256 243.577 38.872C244.857 38.264 246.121 37.96 247.369 37.96C249.961 37.96 252.121 38.632 253.849 39.976C255.609 41.288 256.489 43.544 256.489 46.744V61H250.249V46.984C250.249 44.68 249.833 43 249.001 41.944C248.201 40.888 247.177 40.36 245.929 40.36C245.065 40.36 244.153 40.648 243.193 41.224C242.809 41.448 242.441 41.72 242.089 42.04V61H235.849V35.56ZM265.99 35.848C264.838 35.848 263.942 35.496 263.302 34.792C262.694 34.088 262.39 33.224 262.39 32.2C262.39 31.368 262.63 30.712 263.11 30.232C263.622 29.752 264.262 29.512 265.03 29.512C266.182 29.512 267.062 29.864 267.67 30.568C268.31 31.272 268.63 32.136 268.63 33.16C268.63 33.992 268.374 34.648 267.862 35.128C267.382 35.608 266.758 35.848 265.99 35.848ZM262.87 44.68C262.87 43.048 262.646 41.848 262.198 41.08C261.75 40.28 260.854 39.88 259.51 39.88H259.03V38.44H264.79C265.942 38.44 266.822 38.632 267.43 39.016C268.038 39.4 268.47 40.04 268.726 40.936C268.982 41.8 269.11 43.048 269.11 44.68V61H262.87V44.68ZM286.803 34.936C286.099 33.176 285.379 31.928 284.643 31.192C283.907 30.456 283.043 30.024 282.051 29.896V28.936L284.067 28.84C286.211 28.84 288.083 29.24 289.683 30.04C291.283 30.808 292.579 32.44 293.571 34.936L300.051 51.496L304.371 39.208L302.691 34.936C301.987 33.208 301.219 31.976 300.387 31.24C299.587 30.472 298.659 30.024 297.603 29.896V28.936L299.475 28.84C301.619 28.84 303.491 29.24 305.091 30.04C306.691 30.84 307.987 32.472 308.979 34.936L315.843 52.408L324.051 29.32H326.355L314.979 61.432H313.059L305.667 42.616L299.091 61.432H297.171L286.803 34.936ZM334.208 61.48C331.616 61.48 329.6 60.904 328.16 59.752C326.752 58.568 326.048 56.984 326.048 55C326.048 53.4 326.416 52.072 327.152 51.016C327.92 49.96 329.248 49.16 331.136 48.616C333.024 48.072 335.648 47.8 339.008 47.8H339.728C339.728 45.016 339.344 43.048 338.576 41.896C337.808 40.712 336.672 40.12 335.168 40.12C333.92 40.12 332.896 40.424 332.096 41.032C331.296 41.64 330.72 42.776 330.368 44.44H327.728C327.728 43.352 327.792 42.424 327.92 41.656C328.08 40.888 328.416 40.216 328.928 39.64C329.92 38.52 332.32 37.96 336.128 37.96C339.328 37.96 341.76 38.808 343.424 40.504C345.12 42.168 345.968 44.68 345.968 48.04V61H341.888L340.208 58.84H339.968C339.68 59.288 339.232 59.736 338.624 60.184C337.536 61.048 336.064 61.48 334.208 61.48ZM335.648 59.08C336.32 59.08 336.896 58.952 337.376 58.696C337.856 58.408 338.32 58.024 338.768 57.544C339.184 57.096 339.504 56.568 339.728 55.96V49.96H339.008C336.736 49.96 335.088 50.376 334.064 51.208C333.04 52.008 332.528 53.272 332.528 55C332.528 56.312 332.8 57.32 333.344 58.024C333.888 58.728 334.656 59.08 335.648 59.08ZM359.317 61.48C357.109 61.48 355.397 60.888 354.181 59.704C352.965 58.488 352.357 56.744 352.357 54.472V40.6H349.477V38.44H352.357V34.12L354.757 31.24H358.597V38.44H363.877V40.6H358.597V54.76C358.597 56.488 358.805 57.688 359.221 58.36C359.637 59 360.261 59.32 361.093 59.32C361.989 59.32 362.885 59.112 363.781 58.696C364.133 58.504 364.501 58.28 364.885 58.024L365.557 59.368C365.141 59.72 364.645 60.072 364.069 60.424C362.725 61.128 361.141 61.48 359.317 61.48ZM378.254 61.48C376.046 61.48 374.11 60.968 372.446 59.944C370.782 58.92 369.486 57.528 368.558 55.768C367.662 53.976 367.214 51.96 367.214 49.72C367.214 47.224 367.662 45.096 368.558 43.336C369.486 41.576 370.75 40.248 372.35 39.352C373.95 38.424 375.758 37.96 377.773 37.96C379.758 37.96 381.55 38.36 383.15 39.16C384.75 39.96 386.014 41.096 386.942 42.568C387.87 44.008 388.334 45.672 388.334 47.56C388.334 48.168 388.302 48.856 388.238 49.624L388.142 50.584H373.694C373.694 53.624 374.158 55.848 375.086 57.256C376.014 58.632 377.31 59.32 378.974 59.32C380.51 59.32 381.79 58.984 382.814 58.312C383.87 57.608 384.878 56.616 385.838 55.336L387.326 56.44C386.398 57.88 385.23 59.08 383.822 60.04C382.446 61 380.59 61.48 378.254 61.48ZM381.854 48.424C381.854 45.416 381.502 43.288 380.798 42.04C380.094 40.76 379.086 40.12 377.773 40.12C376.558 40.12 375.566 40.776 374.798 42.088C374.062 43.368 373.694 45.48 373.694 48.424H381.854ZM408.147 38.92C408.723 39.336 409.139 39.8 409.395 40.312C409.651 40.792 409.779 41.048 409.779 41.08L407.331 42.952C407.107 42.664 406.819 42.36 406.467 42.04C405.763 41.4 404.947 41.08 404.019 41.08C402.163 41.08 400.739 41.576 399.747 42.568L399.843 43.288C399.907 43.864 399.939 44.392 399.939 44.872V61H393.699V44.68C393.699 43.048 393.475 41.848 393.027 41.08C392.611 40.28 391.731 39.88 390.387 39.88H389.907V38.44H394.659C395.747 38.44 396.595 38.584 397.203 38.872C397.843 39.128 398.339 39.576 398.691 40.216C400.419 38.712 402.435 37.96 404.739 37.96C406.115 37.96 407.251 38.28 408.147 38.92Z" fill="#091634"/>
<path d="M133.964 85.119C133.182 85.119 132.491 84.983 131.89 84.711C131.301 84.439 130.836 84.0593 130.496 83.572C130.156 83.0847 129.975 82.5407 129.952 81.94H131.21C131.267 82.518 131.522 83.028 131.975 83.47C132.428 83.9007 133.091 84.116 133.964 84.116C134.769 84.116 135.403 83.912 135.868 83.504C136.344 83.0847 136.582 82.5577 136.582 81.923C136.582 81.413 136.452 81.005 136.191 80.699C135.93 80.3817 135.607 80.1493 135.222 80.002C134.837 79.8433 134.304 79.6733 133.624 79.492C132.831 79.2767 132.202 79.067 131.737 78.863C131.272 78.659 130.876 78.3417 130.547 77.911C130.218 77.4803 130.054 76.8967 130.054 76.16C130.054 75.548 130.213 75.004 130.53 74.528C130.847 74.0407 131.295 73.661 131.873 73.389C132.451 73.117 133.114 72.981 133.862 72.981C134.961 72.981 135.845 73.253 136.514 73.797C137.194 74.3297 137.585 75.021 137.687 75.871H136.395C136.316 75.3837 136.049 74.953 135.596 74.579C135.143 74.1937 134.531 74.001 133.76 74.001C133.046 74.001 132.451 74.1937 131.975 74.579C131.499 74.953 131.261 75.4687 131.261 76.126C131.261 76.6247 131.391 77.027 131.652 77.333C131.913 77.639 132.236 77.8713 132.621 78.03C133.018 78.1887 133.55 78.3587 134.219 78.54C134.99 78.7553 135.613 78.9707 136.089 79.186C136.565 79.39 136.967 79.7073 137.296 80.138C137.625 80.5687 137.789 81.1467 137.789 81.872C137.789 82.4273 137.642 82.9543 137.347 83.453C137.052 83.9517 136.616 84.354 136.038 84.66C135.46 84.966 134.769 85.119 133.964 85.119ZM151.7 73.27V85H150.51V75.633L146.328 85H145.461L141.279 75.667V85H140.089V73.27H141.347L145.886 83.436L150.425 73.27H151.7ZM161.284 82.178H155.878L154.841 85H153.583L157.918 73.27H159.261L163.579 85H162.321L161.284 82.178ZM160.927 81.192L158.581 74.766L156.235 81.192H160.927ZM171.813 85L168.872 80.036H166.679V85H165.489V73.117H169.059C170.385 73.117 171.388 73.4343 172.068 74.069C172.759 74.7037 173.105 75.5367 173.105 76.568C173.105 77.4293 172.856 78.166 172.357 78.778C171.87 79.3787 171.144 79.7697 170.181 79.951L173.241 85H171.813ZM166.679 79.067H169.076C170.005 79.067 170.702 78.8403 171.167 78.387C171.643 77.9337 171.881 77.3273 171.881 76.568C171.881 75.786 171.654 75.1853 171.201 74.766C170.748 74.3353 170.034 74.12 169.059 74.12H166.679V79.067ZM182.419 73.117V74.103H179.121V85H177.931V74.103H174.616V73.117H182.419ZM192.568 85.119C191.786 85.119 191.094 84.983 190.494 84.711C189.904 84.439 189.44 84.0593 189.1 83.572C188.76 83.0847 188.578 82.5407 188.556 81.94H189.814C189.87 82.518 190.125 83.028 190.579 83.47C191.032 83.9007 191.695 84.116 192.568 84.116C193.372 84.116 194.007 83.912 194.472 83.504C194.948 83.0847 195.186 82.5577 195.186 81.923C195.186 81.413 195.055 81.005 194.795 80.699C194.534 80.3817 194.211 80.1493 193.826 80.002C193.44 79.8433 192.908 79.6733 192.228 79.492C191.434 79.2767 190.805 79.067 190.341 78.863C189.876 78.659 189.479 78.3417 189.151 77.911C188.822 77.4803 188.658 76.8967 188.658 76.16C188.658 75.548 188.816 75.004 189.134 74.528C189.451 74.0407 189.899 73.661 190.477 73.389C191.055 73.117 191.718 72.981 192.466 72.981C193.565 72.981 194.449 73.253 195.118 73.797C195.798 74.3297 196.189 75.021 196.291 75.871H194.999C194.919 75.3837 194.653 74.953 194.2 74.579C193.746 74.1937 193.134 74.001 192.364 74.001C191.65 74.001 191.055 74.1937 190.579 74.579C190.103 74.953 189.865 75.4687 189.865 76.126C189.865 76.6247 189.995 77.027 190.256 77.333C190.516 77.639 190.839 77.8713 191.225 78.03C191.621 78.1887 192.154 78.3587 192.823 78.54C193.593 78.7553 194.217 78.9707 194.693 79.186C195.169 79.39 195.571 79.7073 195.9 80.138C196.228 80.5687 196.393 81.1467 196.393 81.872C196.393 82.4273 196.245 82.9543 195.951 83.453C195.656 83.9517 195.22 84.354 194.642 84.66C194.064 84.966 193.372 85.119 192.568 85.119ZM199.882 74.086V78.523H204.387V79.509H199.882V84.014H204.897V85H198.692V73.1H204.897V74.086H199.882ZM213.566 85L210.625 80.036H208.432V85H207.242V73.117H210.812C212.138 73.117 213.141 73.4343 213.821 74.069C214.512 74.7037 214.858 75.5367 214.858 76.568C214.858 77.4293 214.609 78.166 214.11 78.778C213.623 79.3787 212.897 79.7697 211.934 79.951L214.994 85H213.566ZM208.432 79.067H210.829C211.758 79.067 212.455 78.8403 212.92 78.387C213.396 77.9337 213.634 77.3273 213.634 76.568C213.634 75.786 213.407 75.1853 212.954 74.766C212.501 74.3353 211.787 74.12 210.812 74.12H208.432V79.067ZM226.637 73.117L222.132 85H220.772L216.267 73.117H217.559L221.452 83.708L225.379 73.117H226.637ZM229.615 73.117V85H228.425V73.117H229.615ZM231.766 79.05C231.766 77.8827 232.021 76.84 232.531 75.922C233.041 74.9927 233.738 74.273 234.622 73.763C235.506 73.2417 236.492 72.981 237.58 72.981C238.906 72.981 240.04 73.2983 240.98 73.933C241.932 74.5563 242.624 75.4403 243.054 76.585H241.66C241.32 75.7803 240.799 75.1513 240.096 74.698C239.405 74.2447 238.566 74.018 237.58 74.018C236.708 74.018 235.92 74.222 235.217 74.63C234.526 75.038 233.982 75.6273 233.585 76.398C233.189 77.1573 232.99 78.0413 232.99 79.05C232.99 80.0587 233.189 80.9427 233.585 81.702C233.982 82.4613 234.526 83.045 235.217 83.453C235.92 83.861 236.708 84.065 237.58 84.065C238.566 84.065 239.405 83.844 240.096 83.402C240.799 82.9487 241.32 82.3253 241.66 81.532H243.054C242.624 82.6653 241.932 83.5437 240.98 84.167C240.028 84.7903 238.895 85.102 237.58 85.102C236.492 85.102 235.506 84.847 234.622 84.337C233.738 83.8157 233.041 83.096 232.531 82.178C232.021 81.26 231.766 80.2173 231.766 79.05ZM246.615 74.086V78.523H251.12V79.509H246.615V84.014H251.63V85H245.425V73.1H251.63V74.086H246.615ZM265.066 73.117V74.103H259.83V78.54H264.25V79.526H259.83V85H258.64V73.117H265.066ZM272.362 85.119C271.263 85.119 270.265 84.864 269.37 84.354C268.475 83.8327 267.766 83.113 267.245 82.195C266.735 81.2657 266.48 80.2173 266.48 79.05C266.48 77.8827 266.735 76.84 267.245 75.922C267.766 74.9927 268.475 74.273 269.37 73.763C270.265 73.2417 271.263 72.981 272.362 72.981C273.473 72.981 274.476 73.2417 275.371 73.763C276.266 74.273 276.969 74.9927 277.479 75.922C277.989 76.84 278.244 77.8827 278.244 79.05C278.244 80.2173 277.989 81.2657 277.479 82.195C276.969 83.113 276.266 83.8327 275.371 84.354C274.476 84.864 273.473 85.119 272.362 85.119ZM272.362 84.082C273.246 84.082 274.039 83.878 274.742 83.47C275.445 83.062 276 82.4783 276.408 81.719C276.816 80.9483 277.02 80.0587 277.02 79.05C277.02 78.0413 276.816 77.1573 276.408 76.398C276 75.6387 275.445 75.055 274.742 74.647C274.039 74.239 273.246 74.035 272.362 74.035C271.478 74.035 270.685 74.239 269.982 74.647C269.279 75.055 268.724 75.6387 268.316 76.398C267.908 77.1573 267.704 78.0413 267.704 79.05C267.704 80.0587 267.908 80.9483 268.316 81.719C268.724 82.4783 269.279 83.062 269.982 83.47C270.685 83.878 271.478 84.082 272.362 84.082ZM286.746 85L283.805 80.036H281.612V85H280.422V73.117H283.992C285.318 73.117 286.321 73.4343 287.001 74.069C287.692 74.7037 288.038 75.5367 288.038 76.568C288.038 77.4293 287.788 78.166 287.29 78.778C286.802 79.3787 286.077 79.7697 285.114 79.951L288.174 85H286.746ZM281.612 79.067H284.009C284.938 79.067 285.635 78.8403 286.1 78.387C286.576 77.9337 286.814 77.3273 286.814 76.568C286.814 75.786 286.587 75.1853 286.134 74.766C285.68 74.3353 284.966 74.12 283.992 74.12H281.612V79.067ZM298.668 85.119C297.886 85.119 297.195 84.983 296.594 84.711C296.005 84.439 295.54 84.0593 295.2 83.572C294.86 83.0847 294.679 82.5407 294.656 81.94H295.914C295.971 82.518 296.226 83.028 296.679 83.47C297.132 83.9007 297.795 84.116 298.668 84.116C299.473 84.116 300.107 83.912 300.572 83.504C301.048 83.0847 301.286 82.5577 301.286 81.923C301.286 81.413 301.156 81.005 300.895 80.699C300.634 80.3817 300.311 80.1493 299.926 80.002C299.541 79.8433 299.008 79.6733 298.328 79.492C297.535 79.2767 296.906 79.067 296.441 78.863C295.976 78.659 295.58 78.3417 295.251 77.911C294.922 77.4803 294.758 76.8967 294.758 76.16C294.758 75.548 294.917 75.004 295.234 74.528C295.551 74.0407 295.999 73.661 296.577 73.389C297.155 73.117 297.818 72.981 298.566 72.981C299.665 72.981 300.549 73.253 301.218 73.797C301.898 74.3297 302.289 75.021 302.391 75.871H301.099C301.02 75.3837 300.753 74.953 300.3 74.579C299.847 74.1937 299.235 74.001 298.464 74.001C297.75 74.001 297.155 74.1937 296.679 74.579C296.203 74.953 295.965 75.4687 295.965 76.126C295.965 76.6247 296.095 77.027 296.356 77.333C296.617 77.639 296.94 77.8713 297.325 78.03C297.722 78.1887 298.254 78.3587 298.923 78.54C299.694 78.7553 300.317 78.9707 300.793 79.186C301.269 79.39 301.671 79.7073 302 80.138C302.329 80.5687 302.493 81.1467 302.493 81.872C302.493 82.4273 302.346 82.9543 302.051 83.453C301.756 83.9517 301.32 84.354 300.742 84.66C300.164 84.966 299.473 85.119 298.668 85.119ZM316.404 73.27V85H315.214V75.633L311.032 85H310.165L305.983 75.667V85H304.793V73.27H306.051L310.59 83.436L315.129 73.27H316.404ZM325.988 82.178H320.582L319.545 85H318.287L322.622 73.27H323.965L328.283 85H327.025L325.988 82.178ZM325.631 81.192L323.285 74.766L320.939 81.192H325.631ZM336.517 85L333.576 80.036H331.383V85H330.193V73.117H333.763C335.089 73.117 336.092 73.4343 336.772 74.069C337.463 74.7037 337.809 75.5367 337.809 76.568C337.809 77.4293 337.56 78.166 337.061 78.778C336.574 79.3787 335.848 79.7697 334.885 79.951L337.945 85H336.517ZM331.383 79.067H333.78C334.709 79.067 335.406 78.8403 335.871 78.387C336.347 77.9337 336.585 77.3273 336.585 76.568C336.585 75.786 336.358 75.1853 335.905 74.766C335.452 74.3353 334.738 74.12 333.763 74.12H331.383V79.067ZM347.124 73.117V74.103H343.826V85H342.636V74.103H339.321V73.117H347.124ZM362.491 73.117V85H361.301V79.441H354.858V85H353.668V73.117H354.858V78.455H361.301V73.117H362.491ZM370.544 85.119C369.444 85.119 368.447 84.864 367.552 84.354C366.656 83.8327 365.948 83.113 365.427 82.195C364.917 81.2657 364.662 80.2173 364.662 79.05C364.662 77.8827 364.917 76.84 365.427 75.922C365.948 74.9927 366.656 74.273 367.552 73.763C368.447 73.2417 369.444 72.981 370.544 72.981C371.654 72.981 372.657 73.2417 373.553 73.763C374.448 74.273 375.151 74.9927 375.661 75.922C376.171 76.84 376.426 77.8827 376.426 79.05C376.426 80.2173 376.171 81.2657 375.661 82.195C375.151 83.113 374.448 83.8327 373.553 84.354C372.657 84.864 371.654 85.119 370.544 85.119ZM370.544 84.082C371.428 84.082 372.221 83.878 372.924 83.47C373.626 83.062 374.182 82.4783 374.59 81.719C374.998 80.9483 375.202 80.0587 375.202 79.05C375.202 78.0413 374.998 77.1573 374.59 76.398C374.182 75.6387 373.626 75.055 372.924 74.647C372.221 74.239 371.428 74.035 370.544 74.035C369.66 74.035 368.866 74.239 368.164 74.647C367.461 75.055 366.906 75.6387 366.498 76.398C366.09 77.1573 365.886 78.0413 365.886 79.05C365.886 80.0587 366.09 80.9483 366.498 81.719C366.906 82.4783 367.461 83.062 368.164 83.47C368.866 83.878 369.66 84.082 370.544 84.082ZM390.214 73.27V85H389.024V75.633L384.842 85H383.975L379.793 75.667V85H378.603V73.27H379.861L384.4 83.436L388.939 73.27H390.214ZM394.104 74.086V78.523H398.609V79.509H394.104V84.014H399.119V85H392.914V73.1H399.119V74.086H394.104ZM405.068 85.119C404.286 85.119 403.594 84.983 402.994 84.711C402.404 84.439 401.94 84.0593 401.6 83.572C401.26 83.0847 401.078 82.5407 401.056 81.94H402.314C402.37 82.518 402.625 83.028 403.079 83.47C403.532 83.9007 404.195 84.116 405.068 84.116C405.872 84.116 406.507 83.912 406.972 83.504C407.448 83.0847 407.686 82.5577 407.686 81.923C407.686 81.413 407.555 81.005 407.295 80.699C407.034 80.3817 406.711 80.1493 406.326 80.002C405.94 79.8433 405.408 79.6733 404.728 79.492C403.934 79.2767 403.305 79.067 402.841 78.863C402.376 78.659 401.979 78.3417 401.651 77.911C401.322 77.4803 401.158 76.8967 401.158 76.16C401.158 75.548 401.316 75.004 401.634 74.528C401.951 74.0407 402.399 73.661 402.977 73.389C403.555 73.117 404.218 72.981 404.966 72.981C406.065 72.981 406.949 73.253 407.618 73.797C408.298 74.3297 408.689 75.021 408.791 75.871H407.499C407.419 75.3837 407.153 74.953 406.7 74.579C406.246 74.1937 405.634 74.001 404.864 74.001C404.15 74.001 403.555 74.1937 403.079 74.579C402.603 74.953 402.365 75.4687 402.365 76.126C402.365 76.6247 402.495 77.027 402.756 77.333C403.016 77.639 403.339 77.8713 403.725 78.03C404.121 78.1887 404.654 78.3587 405.323 78.54C406.093 78.7553 406.717 78.9707 407.193 79.186C407.669 79.39 408.071 79.7073 408.4 80.138C408.728 80.5687 408.893 81.1467 408.893 81.872C408.893 82.4273 408.745 82.9543 408.451 83.453C408.156 83.9517 407.72 84.354 407.142 84.66C406.564 84.966 405.872 85.119 405.068 85.119Z" fill="#315F7D"/>
<path d="M269.709 35.6509C269.699 35.6599 269.689 35.6689 269.678 35.6779C267.598 37.4948 264.403 37.4948 262.322 35.6783C262.311 35.6692 262.301 35.6601 262.29 35.6509C260.724 34.266 259.864 32.1848 260.018 30.1523C260.208 27.6389 261.811 25.4566 263.293 23.3703C264.465 21.719 265.631 19.9244 266 18C266.369 19.9244 267.535 21.719 268.707 23.3703C270.189 25.4566 271.792 27.6389 271.982 30.1523C272.136 32.1847 271.276 34.2659 269.709 35.6509Z" fill="url(#paint0_linear_3164_741)"/>
<g opacity="0.18">
<path d="M269.709 35.6508C269.699 35.6599 269.689 35.669 269.678 35.6779C267.598 37.4948 264.403 37.4948 262.322 35.6783C262.311 35.6692 262.301 35.66 262.29 35.6508C261.761 35.1832 261.313 34.636 260.957 34.0382C261.962 35.0764 263.467 35.72 264.983 35.645C267.236 35.5336 269.213 33.8375 269.8 31.8446C270.411 29.7687 270.356 27.8533 268.391 25.4315C266.592 23.2135 266 22.0581 266 18.0001C266.369 19.9245 267.534 21.719 268.707 23.3704C270.189 25.4566 271.792 27.639 271.982 30.1524C272.136 32.1847 271.276 34.2659 269.709 35.6508Z" fill="url(#paint1_linear_3164_741)"/>
</g>
<path opacity="0.45" d="M261.526 33.7882C261.397 33.5183 261.283 33.2364 261.186 32.9501L262.226 32.598C262.309 32.8437 262.407 33.0856 262.517 33.3168L261.526 33.7882Z" fill="white"/>
<path opacity="0.45" d="M262.96 25.5561C262.296 26.5304 261.887 27.6632 261.745 28.8219C261.607 29.9471 261.721 31.1054 262.098 32.1634L261.038 32.4455C260.573 30.0138 261.272 27.3678 262.96 25.5561Z" fill="white"/>
<defs>
<linearGradient id="paint0_linear_3164_741" x1="263.407" y1="26.3528" x2="272.452" y2="32.4817" gradientUnits="userSpaceOnUse">
<stop stop-color="#06C1F2"/>
<stop offset="0.9989" stop-color="#0078C2"/>
</linearGradient>
<linearGradient id="paint1_linear_3164_741" x1="263.521" y1="26.273" x2="271.231" y2="33.0938" gradientUnits="userSpaceOnUse">
<stop stop-color="#0078C2"/>
<stop offset="0.9989" stop-color="#004187"/>
</linearGradient>
</defs>
</svg>
